<?xml version="1.0" encoding="UTF-8" standalone="no"?>
<svg
   width="110cm"
   height="70cm"
   viewBox="0 0 1100 699.99998"
   version="1.1"
   id="svg8"
   sodipodi:docname="trident.svg"
   inkscape:export-filename="/home/not7cd/Pictures/hs/flag_letters.png"
   inkscape:export-xdpi="14.502213"
   inkscape:export-ydpi="14.502213"
   inkscape:version="1.1.2 (0a00cf5339, 2022-02-04)"
   xmlns:inkscape="http://www.inkscape.org/namespaces/inkscape"
   xmlns:sodipodi="http://sodipodi.sourceforge.net/DTD/sodipodi-0.dtd"
   xmlns:xlink="http://www.w3.org/1999/xlink"
   xmlns="http://www.w3.org/2000/svg"
   xmlns:svg="http://www.w3.org/2000/svg"
   xmlns:rdf="http://www.w3.org/1999/02/22-rdf-syntax-ns#"
   xmlns:cc="http://creativecommons.org/ns#"
   xmlns:dc="http://purl.org/dc/elements/1.1/">
  <defs
     id="defs2">
    <pattern
       inkscape:collect="always"
       xlink:href="#Strips1_1"
       id="pattern2813"
       patternTransform="matrix(69.673038,69.673038,-89.960355,89.960345,0,0)" />
    <pattern
       inkscape:isstock="true"
       inkscape:stockid="Stripes 1:1"
       id="Strips1_1"
       patternTransform="translate(0,0) scale(10,10)"
       height="1"
       width="2"
       patternUnits="userSpaceOnUse"
       inkscape:collect="always">
      <rect
         id="rect1795"
         height="2"
         width="1"
         y="-0.5"
         x="0"
         style="fill:black;stroke:none" />
    </pattern>
  </defs>
  <sodipodi:namedview
     id="base"
     pagecolor="#ffffff"
     bordercolor="#666666"
     borderopacity="1.0"
     inkscape:pageopacity="0.0"
     inkscape:pageshadow="2"
     inkscape:zoom="0.097883485"
     inkscape:cx="1833.8129"
     inkscape:cy="2329.3"
     inkscape:document-units="mm"
     inkscape:current-layer="layer1"
     inkscape:document-rotation="0"
     showgrid="false"
     units="cm"
     inkscape:snap-bbox="true"
     inkscape:snap-bbox-midpoints="true"
     inkscape:window-width="1920"
     inkscape:window-height="1011"
     inkscape:window-x="0"
     inkscape:window-y="32"
     inkscape:window-maximized="1"
     showguides="true"
     inkscape:guide-bbox="true"
     inkscape:snap-page="true"
     inkscape:pagecheckerboard="0">
    <sodipodi:guide
       position="0,0"
       orientation="0.70710678,-0.70710678"
       id="guide2934" />
  </sodipodi:namedview>
  <metadata
     id="metadata5">
    <rdf:RDF>
      <cc:Work
         rdf:about="">
        <dc:format>image/svg+xml</dc:format>
        <dc:type
           rdf:resource="http://purl.org/dc/dcmitype/StillImage" />
      </cc:Work>
    </rdf:RDF>
  </metadata>
  <g
     inkscape:label="Layer 1"
     inkscape:groupmode="layer"
     id="layer1">
    <g
       id="g2879"
       transform="matrix(7.8477434,0,0,7.8477434,-4992.1258,-5920.2597)">
      <g
         style="display:inline;fill:#000000;stroke:none;stroke-width:0.04;stroke-miterlimit:4;stroke-dasharray:none"
         transform="matrix(1.1755177,1.1755177,-1.1755177,1.1755177,693.54778,747.69905)"
         id="use1262">
        <path
           sodipodi:nodetypes="ccccccccssssccccccccccc"
           inkscape:connector-curvature="0"
           id="rect961"
           style="fill:#000000;stroke:none;stroke-width:0.04;stroke-miterlimit:4;stroke-dasharray:none"
           d="m 25.758031,15.433629 c -0.05542,0.04731 -0.101881,0.118412 -0.131181,0.213032 l -0.741778,2.363456 -0.852861,2.73544 c -0.105666,0.293944 0.06906,0.641656 0.314981,0.641656 l 0.746701,0.004 10e-7,9.549257 -2.382205,0.0074 c -0.427486,0 -0.771741,0.344255 -0.771741,0.771741 v 0.06797 c 0,0.427486 0.344255,0.772013 0.771741,0.77174 l 6.398018,-0.0041 c 0.427487,-2.73e-4 0.771741,-0.344254 0.771741,-0.77174 l -3.65e-4,-0.0676 c -1e-6,-0.427485 -0.344256,-0.771739 -0.77174,-0.771741 l -2.423906,-0.0037 -1e-6,-9.549227 0.851035,-0.004 c 0.245918,2e-6 0.403361,-0.345787 0.314982,-0.641654 L 26.996398,18.01155 26.256813,15.646632 c -0.0879,-0.283866 -0.332544,-0.354957 -0.498781,-0.213033 z" />
      </g>
      <g
         style="display:inline;fill:#000000;stroke:none;stroke-width:0.04;stroke-miterlimit:4;stroke-dasharray:none"
         transform="matrix(1.1755177,1.1755177,-1.1755177,1.1755177,680.87092,737.15196)"
         id="g83">
        <path
           sodipodi:nodetypes="sccccccsccccccsccccccs"
           inkscape:connector-curvature="0"
           id="rect77"
           style="fill:#000000;stroke:none;stroke-width:0.151181;stroke-miterlimit:4;stroke-dasharray:none"
           d="m 144.9553,52.872727 c -0.27453,-0.02166 -0.58874,0.04222 -0.91992,0.216797 l -8.29687,4.333984 -9.5918,5.03125 c -1.06796,0.503179 -1.53027,1.901371 -0.87305,2.558594 l 2.22461,2.246094 L 89.284127,105.60341 82.957155,99.172 c -1.133076,-1.15178 -2.982533,-1.142466 -4.125,0 l -0.18164,0.181641 c -1.142467,1.142469 -1.142467,2.980579 0,4.123049 l 17.01378,17.01378 c 1.142466,1.14246 2.982533,1.14246 4.125,0 l 0.181644,-0.18164 c 1.142461,-1.14247 0.966611,-2.86344 -0.15124,-4.02999 l -6.282126,-6.42198 38.281007,-38.281008 1.97852,1.958984 c 0.65723,0.657232 2.00212,0.155821 2.55664,-0.871093 l 5.02149,-9.591797 4.34375,-8.296875 c 0.52372,-0.99355 0.0599,-1.837365 -0.76368,-1.902344 z"
           transform="matrix(0.18708867,-0.18708867,0.18708867,0.18708867,-11.038436,26.981435)" />
      </g>
      <path
         transform="matrix(0.03371457,0,0,0.03371457,636.12246,754.39007)"
         d="m 610.1543,1102.3555 c -9.72577,0 -18.89149,7.3111 -26.34375,14.7636 l -166.47461,166.4747 c -14.90513,14.9051 -15.60074,38.2179 -0.69532,53.123 l 2.3711,2.3691 c 14.90483,14.9049 38.90933,14.9052 53.81445,0 l 138.73047,-138.7285 387.75,387.7735 L 0,2587.4609 v 58.209 H 54.115234 L 1055.4922,1644.291 l 416.1894,416.1895 c 14.9052,14.9051 38.9116,14.9051 53.8164,0 l 2.3692,-2.3692 c 14.9051,-14.9048 14.9051,-38.9113 0,-53.8164 L 639.30273,1117.1191 c -7.45226,-7.4525 -19.42042,-14.7636 -29.14648,-14.7636 z"
         style="display:inline;fill:#000000;stroke:none;stroke-width:1.97236;stroke-miterlimit:4;stroke-dasharray:none;paint-order:normal"
         id="circle983" />
      <g
         id="g1520"
         transform="matrix(1.1755177,1.1755177,-1.1755177,1.1755177,671.09713,725.24841)"
         style="display:inline;fill:#000000;stroke:none;stroke-width:0.04;stroke-miterlimit:4;stroke-dasharray:none">
        <path
           d="m 25.758031,15.433629 c -0.05542,0.04731 -0.101881,0.118412 -0.131181,0.213032 l -0.741778,2.363456 -0.852861,2.73544 c -0.105666,0.293944 0.06906,0.641656 0.314981,0.641656 l 0.746701,0.004 10e-7,9.549257 -2.382205,0.0074 c -0.427486,0 -0.771741,0.344255 -0.771741,0.771741 v 0.06797 c 0,0.427486 0.344255,0.772013 0.771741,0.77174 l 6.398018,-0.0041 c 0.427487,-2.73e-4 0.771741,-0.344254 0.771741,-0.77174 l -3.65e-4,-0.0676 c -1e-6,-0.427485 -0.344256,-0.771739 -0.77174,-0.771741 l -2.423906,-0.0037 -1e-6,-9.549227 0.851035,-0.004 c 0.245918,2e-6 0.403361,-0.345787 0.314982,-0.641654 L 26.996398,18.01155 26.256813,15.646632 c -0.0879,-0.283866 -0.332544,-0.354957 -0.498781,-0.213033 z"
           style="fill:#000000;stroke:none;stroke-width:0.04;stroke-miterlimit:4;stroke-dasharray:none"
           id="path1518"
           inkscape:connector-curvature="0"
           sodipodi:nodetypes="ccccccccssssccccccccccc" />
      </g>
    </g>
    <text
       xml:space="preserve"
       style="font-style:normal;font-variant:normal;font-weight:normal;font-stretch:normal;font-size:116.383px;line-height:1.25;font-family:Iosevka;-inkscape-font-specification:Iosevka;text-align:center;text-anchor:middle;inline-size:700.132;fill:#000000;fill-opacity:1;stroke:none;stroke-width:5.20806"
       x="-307.53513"
       y="86.472572"
       id="text2938-3"
       transform="rotate(-90)" />
    <text
       xml:space="preserve"
       style="font-style:normal;font-variant:normal;font-weight:normal;font-stretch:normal;font-size:116.383px;line-height:1.25;font-family:Iosevka;-inkscape-font-specification:Iosevka;text-align:center;text-anchor:middle;inline-size:700.132;fill:#000000;fill-opacity:1;stroke:none;stroke-width:5.20806"
       x="-307.53513"
       y="86.472572"
       id="text2938-6"
       transform="rotate(-90)" />
  </g>
</svg>
